# Made in Blockbench 4.9.4
mtllib waterSurface.mtl

o plane
v 0.5 0 0.5
v 0.5 0 -0.5
v -0.5 0 0.5
v -0.5 0 -0.5
v 0.5 0 -1.5
v -0.5 0 -1.5
v -1.5 0 -0.5
v -1.5 0 0.5
v -0.5 0 1.5
v 0.5 0 1.5
v 1.5 0 0.5
v 1.5 0 -0.5
v -1.5 0 1.5
v -1.5 0 -1.5
v 1.5 0 -1.5
v 1.5 0 1.5
v 2.5 0 1.5
v 2.5 0 0.5
v 2.5 0 -0.5
v 2.5 0 -1.5
v 3.5 0 -0.5
v 3.5 0 -1.5
v 3.5 0 0.5
v 3.5 0 1.5
v -0.5 0 -2.5
v -1.5 0 -2.5
v 0.5 0 -2.5
v 1.5 0 -2.5
v 2.5 0 -2.5
v 3.5 0 -2.5
v -1.5 0 2.5
v -0.5 0 2.5
v 0.5 0 2.5
v 1.5 0 2.5
v 2.5 0 2.5
v 3.5 0 2.5
v -1.5 0 3.5
v -0.5 0 3.5
v 0.5 0 3.5
v 1.5 0 3.5
v 2.5 0 3.5
v 3.5 0 3.5
v -1.5 0 4.5
v -0.5 0 4.5
v 0.5 0 4.5
v 1.5 0 4.5
v 2.5 0 4.5
v 3.5 0 4.5
v 3.5 0 -3.5
v 2.5 0 -3.5
v 1.5 0 -3.5
v 0.5 0 -3.5
v -0.5 0 -3.5
v -1.5 0 -3.5
v 3.5 0 -4.5
v 2.5 0 -4.5
v 1.5 0 -4.5
v 0.5 0 -4.5
v -0.5 0 -4.5
v -1.5 0 -4.5
v -2.5 0 -4.5
v -2.5 0 -3.5
v -2.5 0 -2.5
v -2.5 0 -1.5
v -2.5 0 -0.5
v -2.5 0 0.5
v -2.5 0 1.5
v -2.5 0 2.5
v -2.5 0 3.5
v -2.5 0 4.5
v -3.5 0 -4.5
v -3.5 0 -3.5
v -3.5 0 -2.5
v -3.5 0 -1.5
v -3.5 0 -0.5
v -3.5 0 0.5
v -3.5 0 1.5
v -3.5 0 2.5
v -3.5 0 3.5
v -3.5 0 4.5
v -4.5 0 -4.5
v -4.5 0 -3.5
v -4.5 0 -2.5
v -4.5 0 -1.5
v -4.5 0 -0.5
v -4.5 0 0.5
v -4.5 0 1.5
v -4.5 0 2.5
v -4.5 0 3.5
v -4.5 0 4.5
v 4.5 0 4.5
v 4.5 0 3.5
v 4.5 0 2.5
v 4.5 0 1.5
v 4.5 0 0.5
v 4.5 0 -0.5
v 4.5 0 -1.5
v 4.5 0 -2.5
v 4.5 0 -3.5
v 4.5 0 -4.5
v 5.5 0 4.5
v 5.5 0 3.5
v 5.5 0 2.5
v 5.5 0 1.5
v 5.5 0 0.5
v 5.5 0 -0.5
v 5.5 0 -1.5
v 5.5 0 -2.5
v 5.5 0 -3.5
v 5.5 0 -4.5
v 6.5 0 4.5
v 6.5 0 3.5
v 6.5 0 2.5
v 6.5 0 1.5
v 6.5 0 0.5
v 6.5 0 -0.5
v 6.5 0 -1.5
v 6.5 0 -2.5
v 6.5 0 -3.5
v 6.5 0 -4.5
v -5.5 0 3.5
v -5.5 0 4.5
v -5.5 0 2.5
v -5.5 0 1.5
v -5.5 0 0.5
v -5.5 0 -0.5
v -5.5 0 -1.5
v -5.5 0 -2.5
v -5.5 0 -3.5
v -5.5 0 -4.5
v -6.5 0 3.5
v -6.5 0 4.5
v -6.5 0 2.5
v -6.5 0 1.5
v -6.5 0 0.5
v -6.5 0 -0.5
v -6.5 0 -1.5
v -6.5 0 -2.5
v -6.5 0 -3.5
v -6.5 0 -4.5
v 6.5 0 -5.5
v 5.5 0 -5.5
v 4.5 0 -5.5
v 3.5 0 -5.5
v 2.5 0 -5.5
v 1.5 0 -5.5
v 0.5 0 -5.5
v -0.5 0 -5.5
v -1.5 0 -5.5
v -2.5 0 -5.5
v -3.5 0 -5.5
v -4.5 0 -5.5
v -5.5 0 -5.5
v -6.5 0 -5.5
v 6.5 0 -6.5
v 5.5 0 -6.5
v 4.5 0 -6.5
v 3.5 0 -6.5
v 2.5 0 -6.5
v 1.5 0 -6.5
v 0.5 0 -6.5
v -0.5 0 -6.5
v -1.5 0 -6.5
v -2.5 0 -6.5
v -3.5 0 -6.5
v -4.5 0 -6.5
v -5.5 0 -6.5
v -6.5 0 -6.5
v 5.5 0 5.5
v 6.5 0 5.5
v 4.5 0 5.5
v 3.5 0 5.5
v 2.5 0 5.5
v 1.5 0 5.5
v 0.5 0 5.5
v -0.5 0 5.5
v -1.5 0 5.5
v -2.5 0 5.5
v -3.5 0 5.5
v -4.5 0 5.5
v -5.5 0 5.5
v -6.5 0 5.5
v 5.5 0 6.5
v 6.5 0 6.5
v 4.5 0 6.5
v 3.5 0 6.5
v 2.5 0 6.5
v 1.5 0 6.5
v 0.5 0 6.5
v -0.5 0 6.5
v -1.5 0 6.5
v -2.5 0 6.5
v -3.5 0 6.5
v -4.5 0 6.5
v -5.5 0 6.5
v -6.5 0 6.5
vt 0.4375 0.5625
vt 0.4375 0.625
vt 0.375 0.625
vt 0.375 0.5625
vt 0.4375 0.625
vt 0.4375 0.6875
vt 0.375 0.6875
vt 0.375 0.625
vt 0.375 0.625
vt 0.3125 0.625
vt 0.3125 0.5625
vt 0.375 0.5625
vt 0.375 0.5625
vt 0.375 0.5
vt 0.4375 0.5
vt 0.4375 0.5625
vt 0.4375 0.5625
vt 0.5 0.5625
vt 0.5 0.625
vt 0.4375 0.625
vt 0.3125 0.5
vt 0.375 0.5
vt 0.375 0.5625
vt 0.3125 0.5625
vt 0.375 0.625
vt 0.375 0.6875
vt 0.3125 0.6875
vt 0.3125 0.625
vt 0.4375 0.625
vt 0.5 0.625
vt 0.5 0.6875
vt 0.4375 0.6875
vt 0.4375 0.5625
vt 0.4375 0.5
vt 0.5 0.5
vt 0.5 0.5625
vt 0.5 0.5
vt 0.5625 0.5
vt 0.5625 0.5625
vt 0.5 0.5625
vt 0.5 0.5625
vt 0.5625 0.5625
vt 0.5625 0.625
vt 0.5 0.625
vt 0.5 0.625
vt 0.5625 0.625
vt 0.5625 0.6875
vt 0.5 0.6875
vt 0.5625 0.625
vt 0.625 0.625
vt 0.625 0.6875
vt 0.5625 0.6875
vt 0.5625 0.5625
vt 0.625 0.5625
vt 0.625 0.625
vt 0.5625 0.625
vt 0.5625 0.5
vt 0.625 0.5
vt 0.625 0.5625
vt 0.5625 0.5625
vt 0.375 0.6875
vt 0.375 0.75
vt 0.3125 0.75
vt 0.3125 0.6875
vt 0.4375 0.6875
vt 0.4375 0.75
vt 0.375 0.75
vt 0.375 0.6875
vt 0.5 0.6875
vt 0.5 0.75
vt 0.4375 0.75
vt 0.4375 0.6875
vt 0.5625 0.6875
vt 0.5625 0.75
vt 0.5 0.75
vt 0.5 0.6875
vt 0.625 0.6875
vt 0.625 0.75
vt 0.5625 0.75
vt 0.5625 0.6875
vt 0.3125 0.5
vt 0.3125 0.4375
vt 0.375 0.4375
vt 0.375 0.5
vt 0.375 0.5
vt 0.375 0.4375
vt 0.4375 0.4375
vt 0.4375 0.5
vt 0.4375 0.5
vt 0.4375 0.4375
vt 0.5 0.4375
vt 0.5 0.5
vt 0.5 0.5
vt 0.5 0.4375
vt 0.5625 0.4375
vt 0.5625 0.5
vt 0.5625 0.5
vt 0.5625 0.4375
vt 0.625 0.4375
vt 0.625 0.5
vt 0.3125 0.4375
vt 0.3125 0.375
vt 0.375 0.375
vt 0.375 0.4375
vt 0.375 0.4375
vt 0.375 0.375
vt 0.4375 0.375
vt 0.4375 0.4375
vt 0.4375 0.4375
vt 0.4375 0.375
vt 0.5 0.375
vt 0.5 0.4375
vt 0.5 0.4375
vt 0.5 0.375
vt 0.5625 0.375
vt 0.5625 0.4375
vt 0.5625 0.4375
vt 0.5625 0.375
vt 0.625 0.375
vt 0.625 0.4375
vt 0.3125 0.375
vt 0.3125 0.3125
vt 0.375 0.3125
vt 0.375 0.375
vt 0.375 0.375
vt 0.375 0.3125
vt 0.4375 0.3125
vt 0.4375 0.375
vt 0.4375 0.375
vt 0.4375 0.3125
vt 0.5 0.3125
vt 0.5 0.375
vt 0.5 0.375
vt 0.5 0.3125
vt 0.5625 0.3125
vt 0.5625 0.375
vt 0.5625 0.375
vt 0.5625 0.3125
vt 0.625 0.3125
vt 0.625 0.375
vt 0.625 0.75
vt 0.625 0.8125
vt 0.5625 0.8125
vt 0.5625 0.75
vt 0.5625 0.75
vt 0.5625 0.8125
vt 0.5 0.8125
vt 0.5 0.75
vt 0.5 0.75
vt 0.5 0.8125
vt 0.4375 0.8125
vt 0.4375 0.75
vt 0.4375 0.75
vt 0.4375 0.8125
vt 0.375 0.8125
vt 0.375 0.75
vt 0.375 0.75
vt 0.375 0.8125
vt 0.3125 0.8125
vt 0.3125 0.75
vt 0.625 0.8125
vt 0.625 0.875
vt 0.5625 0.875
vt 0.5625 0.8125
vt 0.5625 0.8125
vt 0.5625 0.875
vt 0.5 0.875
vt 0.5 0.8125
vt 0.5 0.8125
vt 0.5 0.875
vt 0.4375 0.875
vt 0.4375 0.8125
vt 0.4375 0.8125
vt 0.4375 0.875
vt 0.375 0.875
vt 0.375 0.8125
vt 0.375 0.8125
vt 0.375 0.875
vt 0.3125 0.875
vt 0.3125 0.8125
vt 0.3125 0.875
vt 0.25 0.875
vt 0.25 0.8125
vt 0.3125 0.8125
vt 0.3125 0.8125
vt 0.25 0.8125
vt 0.25 0.75
vt 0.3125 0.75
vt 0.3125 0.75
vt 0.25 0.75
vt 0.25 0.6875
vt 0.3125 0.6875
vt 0.3125 0.6875
vt 0.25 0.6875
vt 0.25 0.625
vt 0.3125 0.625
vt 0.3125 0.625
vt 0.25 0.625
vt 0.25 0.5625
vt 0.3125 0.5625
vt 0.3125 0.5625
vt 0.25 0.5625
vt 0.25 0.5
vt 0.3125 0.5
vt 0.3125 0.5
vt 0.25 0.5
vt 0.25 0.4375
vt 0.3125 0.4375
vt 0.3125 0.4375
vt 0.25 0.4375
vt 0.25 0.375
vt 0.3125 0.375
vt 0.3125 0.375
vt 0.25 0.375
vt 0.25 0.3125
vt 0.3125 0.3125
vt 0.25 0.875
vt 0.1875 0.875
vt 0.1875 0.8125
vt 0.25 0.8125
vt 0.25 0.8125
vt 0.1875 0.8125
vt 0.1875 0.75
vt 0.25 0.75
vt 0.25 0.75
vt 0.1875 0.75
vt 0.1875 0.6875
vt 0.25 0.6875
vt 0.25 0.6875
vt 0.1875 0.6875
vt 0.1875 0.625
vt 0.25 0.625
vt 0.25 0.625
vt 0.1875 0.625
vt 0.1875 0.5625
vt 0.25 0.5625
vt 0.25 0.5625
vt 0.1875 0.5625
vt 0.1875 0.5
vt 0.25 0.5
vt 0.25 0.5
vt 0.1875 0.5
vt 0.1875 0.4375
vt 0.25 0.4375
vt 0.25 0.4375
vt 0.1875 0.4375
vt 0.1875 0.375
vt 0.25 0.375
vt 0.25 0.375
vt 0.1875 0.375
vt 0.1875 0.3125
vt 0.25 0.3125
vt 0.1875 0.875
vt 0.125 0.875
vt 0.125 0.8125
vt 0.1875 0.8125
vt 0.1875 0.8125
vt 0.125 0.8125
vt 0.125 0.75
vt 0.1875 0.75
vt 0.1875 0.75
vt 0.125 0.75
vt 0.125 0.6875
vt 0.1875 0.6875
vt 0.1875 0.6875
vt 0.125 0.6875
vt 0.125 0.625
vt 0.1875 0.625
vt 0.1875 0.625
vt 0.125 0.625
vt 0.125 0.5625
vt 0.1875 0.5625
vt 0.1875 0.5625
vt 0.125 0.5625
vt 0.125 0.5
vt 0.1875 0.5
vt 0.1875 0.5
vt 0.125 0.5
vt 0.125 0.4375
vt 0.1875 0.4375
vt 0.1875 0.4375
vt 0.125 0.4375
vt 0.125 0.375
vt 0.1875 0.375
vt 0.1875 0.375
vt 0.125 0.375
vt 0.125 0.3125
vt 0.1875 0.3125
vt 0.625 0.3125
vt 0.6875 0.3125
vt 0.6875 0.375
vt 0.625 0.375
vt 0.625 0.375
vt 0.6875 0.375
vt 0.6875 0.4375
vt 0.625 0.4375
vt 0.625 0.4375
vt 0.6875 0.4375
vt 0.6875 0.5
vt 0.625 0.5
vt 0.625 0.5
vt 0.6875 0.5
vt 0.6875 0.5625
vt 0.625 0.5625
vt 0.625 0.5625
vt 0.6875 0.5625
vt 0.6875 0.625
vt 0.625 0.625
vt 0.625 0.625
vt 0.6875 0.625
vt 0.6875 0.6875
vt 0.625 0.6875
vt 0.625 0.6875
vt 0.6875 0.6875
vt 0.6875 0.75
vt 0.625 0.75
vt 0.625 0.75
vt 0.6875 0.75
vt 0.6875 0.8125
vt 0.625 0.8125
vt 0.625 0.8125
vt 0.6875 0.8125
vt 0.6875 0.875
vt 0.625 0.875
vt 0.6875 0.3125
vt 0.75 0.3125
vt 0.75 0.375
vt 0.6875 0.375
vt 0.6875 0.375
vt 0.75 0.375
vt 0.75 0.4375
vt 0.6875 0.4375
vt 0.6875 0.4375
vt 0.75 0.4375
vt 0.75 0.5
vt 0.6875 0.5
vt 0.6875 0.5
vt 0.75 0.5
vt 0.75 0.5625
vt 0.6875 0.5625
vt 0.6875 0.5625
vt 0.75 0.5625
vt 0.75 0.625
vt 0.6875 0.625
vt 0.6875 0.625
vt 0.75 0.625
vt 0.75 0.6875
vt 0.6875 0.6875
vt 0.6875 0.6875
vt 0.75 0.6875
vt 0.75 0.75
vt 0.6875 0.75
vt 0.6875 0.75
vt 0.75 0.75
vt 0.75 0.8125
vt 0.6875 0.8125
vt 0.6875 0.8125
vt 0.75 0.8125
vt 0.75 0.875
vt 0.6875 0.875
vt 0.75 0.3125
vt 0.8125 0.3125
vt 0.8125 0.375
vt 0.75 0.375
vt 0.75 0.375
vt 0.8125 0.375
vt 0.8125 0.4375
vt 0.75 0.4375
vt 0.75 0.4375
vt 0.8125 0.4375
vt 0.8125 0.5
vt 0.75 0.5
vt 0.75 0.5
vt 0.8125 0.5
vt 0.8125 0.5625
vt 0.75 0.5625
vt 0.75 0.5625
vt 0.8125 0.5625
vt 0.8125 0.625
vt 0.75 0.625
vt 0.75 0.625
vt 0.8125 0.625
vt 0.8125 0.6875
vt 0.75 0.6875
vt 0.75 0.6875
vt 0.8125 0.6875
vt 0.8125 0.75
vt 0.75 0.75
vt 0.75 0.75
vt 0.8125 0.75
vt 0.8125 0.8125
vt 0.75 0.8125
vt 0.75 0.8125
vt 0.8125 0.8125
vt 0.8125 0.875
vt 0.75 0.875
vt 0.125 0.375
vt 0.0625 0.375
vt 0.0625 0.3125
vt 0.125 0.3125
vt 0.125 0.4375
vt 0.0625 0.4375
vt 0.0625 0.375
vt 0.125 0.375
vt 0.125 0.5
vt 0.0625 0.5
vt 0.0625 0.4375
vt 0.125 0.4375
vt 0.125 0.5625
vt 0.0625 0.5625
vt 0.0625 0.5
vt 0.125 0.5
vt 0.125 0.625
vt 0.0625 0.625
vt 0.0625 0.5625
vt 0.125 0.5625
vt 0.125 0.6875
vt 0.0625 0.6875
vt 0.0625 0.625
vt 0.125 0.625
vt 0.125 0.75
vt 0.0625 0.75
vt 0.0625 0.6875
vt 0.125 0.6875
vt 0.125 0.8125
vt 0.0625 0.8125
vt 0.0625 0.75
vt 0.125 0.75
vt 0.125 0.875
vt 0.0625 0.875
vt 0.0625 0.8125
vt 0.125 0.8125
vt 0.0625 0.375
vt 0 0.375
vt 0 0.3125
vt 0.0625 0.3125
vt 0.0625 0.4375
vt 0 0.4375
vt 0 0.375
vt 0.0625 0.375
vt 0.0625 0.5
vt 0 0.5
vt 0 0.4375
vt 0.0625 0.4375
vt 0.0625 0.5625
vt 0 0.5625
vt 0 0.5
vt 0.0625 0.5
vt 0.0625 0.625
vt 0 0.625
vt 0 0.5625
vt 0.0625 0.5625
vt 0.0625 0.6875
vt 0 0.6875
vt 0 0.625
vt 0.0625 0.625
vt 0.0625 0.75
vt 0 0.75
vt 0 0.6875
vt 0.0625 0.6875
vt 0.0625 0.8125
vt 0 0.8125
vt 0 0.75
vt 0.0625 0.75
vt 0.0625 0.875
vt 0 0.875
vt 0 0.8125
vt 0.0625 0.8125
vt 0.8125 0.875
vt 0.8125 0.9375
vt 0.75 0.9375
vt 0.75 0.875
vt 0.75 0.875
vt 0.75 0.9375
vt 0.6875 0.9375
vt 0.6875 0.875
vt 0.6875 0.875
vt 0.6875 0.9375
vt 0.625 0.9375
vt 0.625 0.875
vt 0.625 0.875
vt 0.625 0.9375
vt 0.5625 0.9375
vt 0.5625 0.875
vt 0.5625 0.875
vt 0.5625 0.9375
vt 0.5 0.9375
vt 0.5 0.875
vt 0.5 0.875
vt 0.5 0.9375
vt 0.4375 0.9375
vt 0.4375 0.875
vt 0.4375 0.875
vt 0.4375 0.9375
vt 0.375 0.9375
vt 0.375 0.875
vt 0.375 0.875
vt 0.375 0.9375
vt 0.3125 0.9375
vt 0.3125 0.875
vt 0.3125 0.875
vt 0.3125 0.9375
vt 0.25 0.9375
vt 0.25 0.875
vt 0.25 0.875
vt 0.25 0.9375
vt 0.1875 0.9375
vt 0.1875 0.875
vt 0.1875 0.875
vt 0.1875 0.9375
vt 0.125 0.9375
vt 0.125 0.875
vt 0.125 0.875
vt 0.125 0.9375
vt 0.0625 0.9375
vt 0.0625 0.875
vt 0.0625 0.875
vt 0.0625 0.9375
vt 0 0.9375
vt 0 0.875
vt 0.8125 0.9375
vt 0.8125 1
vt 0.75 1
vt 0.75 0.9375
vt 0.75 0.9375
vt 0.75 1
vt 0.6875 1
vt 0.6875 0.9375
vt 0.6875 0.9375
vt 0.6875 1
vt 0.625 1
vt 0.625 0.9375
vt 0.625 0.9375
vt 0.625 1
vt 0.5625 1
vt 0.5625 0.9375
vt 0.5625 0.9375
vt 0.5625 1
vt 0.5 1
vt 0.5 0.9375
vt 0.5 0.9375
vt 0.5 1
vt 0.4375 1
vt 0.4375 0.9375
vt 0.4375 0.9375
vt 0.4375 1
vt 0.375 1
vt 0.375 0.9375
vt 0.375 0.9375
vt 0.375 1
vt 0.3125 1
vt 0.3125 0.9375
vt 0.3125 0.9375
vt 0.3125 1
vt 0.25 1
vt 0.25 0.9375
vt 0.25 0.9375
vt 0.25 1
vt 0.1875 1
vt 0.1875 0.9375
vt 0.1875 0.9375
vt 0.1875 1
vt 0.125 1
vt 0.125 0.9375
vt 0.125 0.9375
vt 0.125 1
vt 0.0625 1
vt 0.0625 0.9375
vt 0.0625 0.9375
vt 0.0625 1
vt 0 1
vt 0 0.9375
vt 0.75 0.3125
vt 0.75 0.25
vt 0.8125 0.25
vt 0.8125 0.3125
vt 0.6875 0.3125
vt 0.6875 0.25
vt 0.75 0.25
vt 0.75 0.3125
vt 0.625 0.3125
vt 0.625 0.25
vt 0.6875 0.25
vt 0.6875 0.3125
vt 0.5625 0.3125
vt 0.5625 0.25
vt 0.625 0.25
vt 0.625 0.3125
vt 0.5 0.3125
vt 0.5 0.25
vt 0.5625 0.25
vt 0.5625 0.3125
vt 0.4375 0.3125
vt 0.4375 0.25
vt 0.5 0.25
vt 0.5 0.3125
vt 0.375 0.3125
vt 0.375 0.25
vt 0.4375 0.25
vt 0.4375 0.3125
vt 0.3125 0.3125
vt 0.3125 0.25
vt 0.375 0.25
vt 0.375 0.3125
vt 0.25 0.3125
vt 0.25 0.25
vt 0.3125 0.25
vt 0.3125 0.3125
vt 0.1875 0.3125
vt 0.1875 0.25
vt 0.25 0.25
vt 0.25 0.3125
vt 0.125 0.3125
vt 0.125 0.25
vt 0.1875 0.25
vt 0.1875 0.3125
vt 0.0625 0.3125
vt 0.0625 0.25
vt 0.125 0.25
vt 0.125 0.3125
vt 0 0.3125
vt 0 0.25
vt 0.0625 0.25
vt 0.0625 0.3125
vt 0.75 0.25
vt 0.75 0.1875
vt 0.8125 0.1875
vt 0.8125 0.25
vt 0.6875 0.25
vt 0.6875 0.1875
vt 0.75 0.1875
vt 0.75 0.25
vt 0.625 0.25
vt 0.625 0.1875
vt 0.6875 0.1875
vt 0.6875 0.25
vt 0.5625 0.25
vt 0.5625 0.1875
vt 0.625 0.1875
vt 0.625 0.25
vt 0.5 0.25
vt 0.5 0.1875
vt 0.5625 0.1875
vt 0.5625 0.25
vt 0.4375 0.25
vt 0.4375 0.1875
vt 0.5 0.1875
vt 0.5 0.25
vt 0.375 0.25
vt 0.375 0.1875
vt 0.4375 0.1875
vt 0.4375 0.25
vt 0.3125 0.25
vt 0.3125 0.1875
vt 0.375 0.1875
vt 0.375 0.25
vt 0.25 0.25
vt 0.25 0.1875
vt 0.3125 0.1875
vt 0.3125 0.25
vt 0.1875 0.25
vt 0.1875 0.1875
vt 0.25 0.1875
vt 0.25 0.25
vt 0.125 0.25
vt 0.125 0.1875
vt 0.1875 0.1875
vt 0.1875 0.25
vt 0.0625 0.25
vt 0.0625 0.1875
vt 0.125 0.1875
vt 0.125 0.25
vt 0 0.25
vt 0 0.1875
vt 0.0625 0.1875
vt 0.0625 0.25
vn 0 1 0
vn 0 1 0
vn 0 1 0
vn 0 1 0
vn 0 1 0
vn 0 1 0
vn 0 1 0
vn 0 1 0
vn 0 1 0
vn 0 1 0
vn 0 1 0
vn 0 1 0
vn 0 1 0
vn 0 1 0
vn 0 1 0
vn 0 1 0
vn 0 1 0
vn 0 1 0
vn 0 1 0
vn 0 1 0
vn 0 1 0
vn 0 1 0
vn 0 1 0
vn 0 1 0
vn 0 1 0
vn 0 1 0
vn 0 1 0
vn 0 1 0
vn 0 1 0
vn 0 1 0
vn 0 1 0
vn 0 1 0
vn 0 1 0
vn 0 1 0
vn 0 1 0
vn 0 1 0
vn 0 1 0
vn 0 1 0
vn 0 1 0
vn 0 1 0
vn 0 1 0
vn 0 1 0
vn 0 1 0
vn 0 1 0
vn 0 1 0
vn 0 1 0
vn 0 1 0
vn 0 1 0
vn 0 1 0
vn 0 1 0
vn 0 1 0
vn 0 1 0
vn 0 1 0
vn 0 1 0
vn 0 1 0
vn 0 1 0
vn 0 1 0
vn 0 1 0
vn 0 1 0
vn 0 1 0
vn 0 1 0
vn 0 1 0
vn 0 1 0
vn 0 1 0
vn 0 1 0
vn 0 1 0
vn 0 1 0
vn 0 1 0
vn 0 1 0
vn 0 1 0
vn 0 1 0
vn 0 1 0
vn 0 1 0
vn 0 1 0
vn 0 1 0
vn 0 1 0
vn 0 1 0
vn 0 1 0
vn 0 1 0
vn 0 1 0
vn 0 1 0
vn 0 1 0
vn 0 1 0
vn 0 1 0
vn 0 1 0
vn 0 1 0
vn 0 1 0
vn 0 1 0
vn 0 1 0
vn 0 1 0
vn 0 1 0
vn 0 1 0
vn 0 1 0
vn 0 1 0
vn 0 1 0
vn 0 1 0
vn 0 1 0
vn 0 1 0
vn 0 1 0
vn 0 1 0
vn 0 1 0
vn 0 1 0
vn 0 1 0
vn 0 1 0
vn 0 1 0
vn 0 1 0
vn 0 1 0
vn 0 1 0
vn 0 1 0
vn 0 1 0
vn 0 1 0
vn 0 1 0
vn 0 1 0
vn 0 1 0
vn 0 1 0
vn 0 1 0
vn 0 1 0
vn 0 1 0
vn 0 1 0
vn 0 1 0
vn 0 1 0
vn 0 1 0
vn 0 1 0
vn 0 1 0
vn 0 1 0
vn 0 1 0
vn 0 1 0
vn 0 1 0
vn 0 1 0
vn 0 1 0
vn 0 1 0
vn 0 1 0
vn 0 1 0
vn 0 1 0
vn 0 1 0
vn 0 1 0
vn 0 1 0
vn 0 1 0
vn 0 1 0
vn 0 1 0
vn 0 1 0
vn 0 1 0
vn 0 1 0
vn 0 1 0
vn 0 1 0
vn 0 1 0
vn 0 1 0
vn 0 1 0
vn 0 1 0
vn 0 1 0
vn 0 1 0
vn 0 1 0
vn 0 1 0
vn 0 1 0
vn 0 1 0
vn 0 1 0
vn 0 1 0
vn 0 1 0
vn 0 1 0
vn 0 1 0
vn 0 1 0
vn 0 1 0
vn 0 1 0
vn 0 1 0
vn 0 1 0
vn 0 1 0
vn 0 1 0
vn 0 1 0
vn 0 1 0
usemtl m_a477914f-e2bf-1abb-cd67-0bf8aec9f19d
f 1/1/1 2/2/1 4/3/1 3/4/1
f 2/5/2 5/6/2 6/7/2 4/8/2
f 4/9/3 7/10/3 8/11/3 3/12/3
f 3/13/4 9/14/4 10/15/4 1/16/4
f 1/17/5 11/18/5 12/19/5 2/20/5
f 13/21/6 9/22/6 3/23/6 8/24/6
f 4/25/7 6/26/7 14/27/7 7/28/7
f 2/29/8 12/30/8 15/31/8 5/32/8
f 1/33/9 10/34/9 16/35/9 11/36/9
f 16/37/10 17/38/10 18/39/10 11/40/10
f 11/41/11 18/42/11 19/43/11 12/44/11
f 12/45/12 19/46/12 20/47/12 15/48/12
f 19/49/13 21/50/13 22/51/13 20/52/13
f 18/53/14 23/54/14 21/55/14 19/56/14
f 17/57/15 24/58/15 23/59/15 18/60/15
f 6/61/16 25/62/16 26/63/16 14/64/16
f 5/65/17 27/66/17 25/67/17 6/68/17
f 15/69/18 28/70/18 27/71/18 5/72/18
f 20/73/19 29/74/19 28/75/19 15/76/19
f 22/77/20 30/78/20 29/79/20 20/80/20
f 13/81/21 31/82/21 32/83/21 9/84/21
f 9/85/22 32/86/22 33/87/22 10/88/22
f 10/89/23 33/90/23 34/91/23 16/92/23
f 16/93/24 34/94/24 35/95/24 17/96/24
f 17/97/25 35/98/25 36/99/25 24/100/25
f 31/101/26 37/102/26 38/103/26 32/104/26
f 32/105/27 38/106/27 39/107/27 33/108/27
f 33/109/28 39/110/28 40/111/28 34/112/28
f 34/113/29 40/114/29 41/115/29 35/116/29
f 35/117/30 41/118/30 42/119/30 36/120/30
f 37/121/31 43/122/31 44/123/31 38/124/31
f 38/125/32 44/126/32 45/127/32 39/128/32
f 39/129/33 45/130/33 46/131/33 40/132/33
f 40/133/34 46/134/34 47/135/34 41/136/34
f 41/137/35 47/138/35 48/139/35 42/140/35
f 30/141/36 49/142/36 50/143/36 29/144/36
f 29/145/37 50/146/37 51/147/37 28/148/37
f 28/149/38 51/150/38 52/151/38 27/152/38
f 27/153/39 52/154/39 53/155/39 25/156/39
f 25/157/40 53/158/40 54/159/40 26/160/40
f 49/161/41 55/162/41 56/163/41 50/164/41
f 50/165/42 56/166/42 57/167/42 51/168/42
f 51/169/43 57/170/43 58/171/43 52/172/43
f 52/173/44 58/174/44 59/175/44 53/176/44
f 53/177/45 59/178/45 60/179/45 54/180/45
f 60/181/46 61/182/46 62/183/46 54/184/46
f 54/185/47 62/186/47 63/187/47 26/188/47
f 26/189/48 63/190/48 64/191/48 14/192/48
f 14/193/49 64/194/49 65/195/49 7/196/49
f 7/197/50 65/198/50 66/199/50 8/200/50
f 8/201/51 66/202/51 67/203/51 13/204/51
f 13/205/52 67/206/52 68/207/52 31/208/52
f 31/209/53 68/210/53 69/211/53 37/212/53
f 37/213/54 69/214/54 70/215/54 43/216/54
f 61/217/55 71/218/55 72/219/55 62/220/55
f 62/221/56 72/222/56 73/223/56 63/224/56
f 63/225/57 73/226/57 74/227/57 64/228/57
f 64/229/58 74/230/58 75/231/58 65/232/58
f 65/233/59 75/234/59 76/235/59 66/236/59
f 66/237/60 76/238/60 77/239/60 67/240/60
f 67/241/61 77/242/61 78/243/61 68/244/61
f 68/245/62 78/246/62 79/247/62 69/248/62
f 69/249/63 79/250/63 80/251/63 70/252/63
f 71/253/64 81/254/64 82/255/64 72/256/64
f 72/257/65 82/258/65 83/259/65 73/260/65
f 73/261/66 83/262/66 84/263/66 74/264/66
f 74/265/67 84/266/67 85/267/67 75/268/67
f 75/269/68 85/270/68 86/271/68 76/272/68
f 76/273/69 86/274/69 87/275/69 77/276/69
f 77/277/70 87/278/70 88/279/70 78/280/70
f 78/281/71 88/282/71 89/283/71 79/284/71
f 79/285/72 89/286/72 90/287/72 80/288/72
f 48/289/73 91/290/73 92/291/73 42/292/73
f 42/293/74 92/294/74 93/295/74 36/296/74
f 36/297/75 93/298/75 94/299/75 24/300/75
f 24/301/76 94/302/76 95/303/76 23/304/76
f 23/305/77 95/306/77 96/307/77 21/308/77
f 21/309/78 96/310/78 97/311/78 22/312/78
f 22/313/79 97/314/79 98/315/79 30/316/79
f 30/317/80 98/318/80 99/319/80 49/320/80
f 49/321/81 99/322/81 100/323/81 55/324/81
f 91/325/82 101/326/82 102/327/82 92/328/82
f 92/329/83 102/330/83 103/331/83 93/332/83
f 93/333/84 103/334/84 104/335/84 94/336/84
f 94/337/85 104/338/85 105/339/85 95/340/85
f 95/341/86 105/342/86 106/343/86 96/344/86
f 96/345/87 106/346/87 107/347/87 97/348/87
f 97/349/88 107/350/88 108/351/88 98/352/88
f 98/353/89 108/354/89 109/355/89 99/356/89
f 99/357/90 109/358/90 110/359/90 100/360/90
f 101/361/91 111/362/91 112/363/91 102/364/91
f 102/365/92 112/366/92 113/367/92 103/368/92
f 103/369/93 113/370/93 114/371/93 104/372/93
f 104/373/94 114/374/94 115/375/94 105/376/94
f 105/377/95 115/378/95 116/379/95 106/380/95
f 106/381/96 116/382/96 117/383/96 107/384/96
f 107/385/97 117/386/97 118/387/97 108/388/97
f 108/389/98 118/390/98 119/391/98 109/392/98
f 109/393/99 119/394/99 120/395/99 110/396/99
f 89/397/100 121/398/100 122/399/100 90/400/100
f 88/401/101 123/402/101 121/403/101 89/404/101
f 87/405/102 124/406/102 123/407/102 88/408/102
f 86/409/103 125/410/103 124/411/103 87/412/103
f 85/413/104 126/414/104 125/415/104 86/416/104
f 84/417/105 127/418/105 126/419/105 85/420/105
f 83/421/106 128/422/106 127/423/106 84/424/106
f 82/425/107 129/426/107 128/427/107 83/428/107
f 81/429/108 130/430/108 129/431/108 82/432/108
f 121/433/109 131/434/109 132/435/109 122/436/109
f 123/437/110 133/438/110 131/439/110 121/440/110
f 124/441/111 134/442/111 133/443/111 123/444/111
f 125/445/112 135/446/112 134/447/112 124/448/112
f 126/449/113 136/450/113 135/451/113 125/452/113
f 127/453/114 137/454/114 136/455/114 126/456/114
f 128/457/115 138/458/115 137/459/115 127/460/115
f 129/461/116 139/462/116 138/463/116 128/464/116
f 130/465/117 140/466/117 139/467/117 129/468/117
f 120/469/118 141/470/118 142/471/118 110/472/118
f 110/473/119 142/474/119 143/475/119 100/476/119
f 100/477/120 143/478/120 144/479/120 55/480/120
f 55/481/121 144/482/121 145/483/121 56/484/121
f 56/485/122 145/486/122 146/487/122 57/488/122
f 57/489/123 146/490/123 147/491/123 58/492/123
f 58/493/124 147/494/124 148/495/124 59/496/124
f 59/497/125 148/498/125 149/499/125 60/500/125
f 60/501/126 149/502/126 150/503/126 61/504/126
f 61/505/127 150/506/127 151/507/127 71/508/127
f 71/509/128 151/510/128 152/511/128 81/512/128
f 81/513/129 152/514/129 153/515/129 130/516/129
f 130/517/130 153/518/130 154/519/130 140/520/130
f 141/521/131 155/522/131 156/523/131 142/524/131
f 142/525/132 156/526/132 157/527/132 143/528/132
f 143/529/133 157/530/133 158/531/133 144/532/133
f 144/533/134 158/534/134 159/535/134 145/536/134
f 145/537/135 159/538/135 160/539/135 146/540/135
f 146/541/136 160/542/136 161/543/136 147/544/136
f 147/545/137 161/546/137 162/547/137 148/548/137
f 148/549/138 162/550/138 163/551/138 149/552/138
f 149/553/139 163/554/139 164/555/139 150/556/139
f 150/557/140 164/558/140 165/559/140 151/560/140
f 151/561/141 165/562/141 166/563/141 152/564/141
f 152/565/142 166/566/142 167/567/142 153/568/142
f 153/569/143 167/570/143 168/571/143 154/572/143
f 101/573/144 169/574/144 170/575/144 111/576/144
f 91/577/145 171/578/145 169/579/145 101/580/145
f 48/581/146 172/582/146 171/583/146 91/584/146
f 47/585/147 173/586/147 172/587/147 48/588/147
f 46/589/148 174/590/148 173/591/148 47/592/148
f 45/593/149 175/594/149 174/595/149 46/596/149
f 44/597/150 176/598/150 175/599/150 45/600/150
f 43/601/151 177/602/151 176/603/151 44/604/151
f 70/605/152 178/606/152 177/607/152 43/608/152
f 80/609/153 179/610/153 178/611/153 70/612/153
f 90/613/154 180/614/154 179/615/154 80/616/154
f 122/617/155 181/618/155 180/619/155 90/620/155
f 132/621/156 182/622/156 181/623/156 122/624/156
f 169/625/157 183/626/157 184/627/157 170/628/157
f 171/629/158 185/630/158 183/631/158 169/632/158
f 172/633/159 186/634/159 185/635/159 171/636/159
f 173/637/160 187/638/160 186/639/160 172/640/160
f 174/641/161 188/642/161 187/643/161 173/644/161
f 175/645/162 189/646/162 188/647/162 174/648/162
f 176/649/163 190/650/163 189/651/163 175/652/163
f 177/653/164 191/654/164 190/655/164 176/656/164
f 178/657/165 192/658/165 191/659/165 177/660/165
f 179/661/166 193/662/166 192/663/166 178/664/166
f 180/665/167 194/666/167 193/667/167 179/668/167
f 181/669/168 195/670/168 194/671/168 180/672/168
f 182/673/169 196/674/169 195/675/169 181/676/169